# AST/ASF file generated using VICON BodyLanguage
# -----------------------------------------------
:version 1.10
:name VICON
:units
  mass 1.0
  length 0.45
  angle deg
:documentation
   .ast/.asf automatically generated from VICON data using
   VICON BodyBuilder and BodyLanguage model FoxedUp or BRILLIANT.MOD
:root
   order TX TY TZ RX RY RZ
   axis XYZ
   position 0 0 0  
   orientation 0 0 0 
:bonedata
  begin
     id 1 
     name lhipjoint
     direction 0.710087 -0.641647 0.289942 
     length 2.79038 
     axis 0 0 0  XYZ
  end
  begin
     id 2 
     name lfemur
     direction 0.34202 -0.939693 0  
     length 7.2706  
     axis 0 0 20  XYZ
    dof rx ry rz
    limits (-160.0 20.0)
           (-70.0 70.0)
           (-60.0 70.0)
  end
  begin
     id 3 
     name ltibia
     direction 0.34202 -0.939693 0   
     length 7.86328   
     axis 0 0 20   XYZ
    dof rx
    limits (-10.0 170.0)
  end
  begin
     id 4 
     name lfoot
     direction 0.0541246 -0.148706 0.987399   
     length 2.37542   
     axis -90 7.62852e-016 20   XYZ
    dof rx rz
    limits (-45.0 90.0)
           (-70.0 20.0)
  end
  begin
     id 5 
     name ltoes
     direction 1.53554e-011 -4.21866e-011 1   
     length 1.19593   
     axis -90 7.62852e-016 20   XYZ
    dof rx
    limits (-90.0 20.0)
  end
  begin
     id 6 
     name rhipjoint
     direction -0.675762 -0.671724 0.303533   
     length 2.66544  
     axis 0 0 0  XYZ 
  end
  begin
     id 7 
     name rfemur
     direction -0.34202 -0.939693 0   
     length 8.11844   
     axis 0 0 -20   XYZ
    dof rx ry rz
    limits (-160.0 20.0)
           (-70.0 70.0)
           (-70.0 60.0)
  end
  begin
     id 8 
     name rtibia
     direction -0.34202 -0.939693 0   
     length 7.97082   
     axis 0 0 -20   XYZ
    dof rx
    limits (-10.0 170.0)
 end
 begin
     id 9 
     name rfoot
     direction -0.0726228 -0.199474 0.977208   
     length 2.19677  
     axis -90 -7.62852e-016 -20   XYZ
    dof rx rz
    limits (-45.0 90.0)
           (-20.0 70.0)
  end
  begin
     id 10 
     name rtoes
     direction -1.53508e-011 -4.21913e-011 1   
     length 1.10438   
     axis -90 -7.62852e-016 -20   XYZ
    dof rx
    limits (-90.0 20.0)
  end
  begin
     id 11 
     name lowerback
     direction -0.00404436 0.999673 -0.0252643   
     length 2.03972   
     axis 0 0 0   XYZ
    dof rx ry rz
    limits (-20.0 45.0)
           (-30.0 30.0)
           (-30.0 30.0)
  end
  begin
     id 12 
     name upperback
     direction 0.00744643 0.999969 0.00242763   
     length 2.04273   
     axis 0 0 0   XYZ
    dof rx ry rz
    limits (-20.0 45.0)
           (-30.0 30.0)
           (-30.0 30.0)
  end
  begin
     id 13 
     name thorax
     direction 0.00846113 0.999862 0.0143204   
     length 2.03752   
     axis 0 0 0   XYZ
    dof rx ry rz
    limits (-20.0 45.0)
           (-30.0 30.0)
           (-30.0 30.0)
  end
  begin
     id 14 
     name lowerneck
     direction 0.0328213 0.990857 0.130862   
     length 1.37497   
     axis 0 0 0   XYZ
    dof rx ry rz
    limits (-20.0 45.0)
           (-30.0 30.0)
           (-30.0 30.0)
  end
  begin
     id 15 
     name upperneck
     direction -0.0302832 0.999496 0.00956452   
     length 1.35926   
     axis 0 0 0   XYZ
    dof rx ry rz
    limits (-20.0 45.0)
           (-30.0 30.0)
           (-30.0 30.0)
  end
  begin
     id 16
     name head
     direction -0.0130455 0.999856 -0.0108809  
     length 1.44454  
     axis 0 0 0   XYZ
    dof rx ry rz
    limits (-20.0 45.0)
           (-30.0 30.0)
           (-30.0 30.0)
  end
  begin
     id 17 
     name lclavicle
     direction 0.952957 0.278766 0.119006  
     length 3.10112  
     axis 0 0 0   XYZ
    dof ry rz
    limits (-20.0 10.0)
           (0.0 20.0)
  end
  begin
     id 18 
     name lhumerus
     direction 1 -4.48972e-011 -1.63238e-028   
     length 5.82845   
     axis -180 -30 -90   XYZ
    dof rx ry rz
    limits (-60.0 90.0)
           (-90.0 90.0)
           (-90.0 90.0)
  end
  begin
     id 19
     name lradius
     direction 1 -4.48959e-011 1.45401e-026   
     length 3.49691   
     axis -180 -30 -90   XYZ
    dof rx
    limits (-10.0 170.0)
  end
  begin
     id 20
     name lwrist
     direction 1 -4.48945e-011 2.98015e-026   
     length 1.74845   
     axis -1.7599e-014 90 90   XYZ
    dof ry
    limits (-180.0 0.0)
 end
  begin
     id 21 
     name lhand
     direction 1 -4.4902e-011 5.9603e-026   
     length 0.674998   
     axis -3.80318e-014 90 90   XYZ
    dof rx rz
    limits (-90.0 90.0)
           (-45.0 45.0)
  end
  begin
     id 22 
     name lfingers
     direction 1 -4.48979e-011 1.19206e-025   
     length 0.544201   
     axis -7.60636e-014 90 90   XYZ
    dof rx
    limits (0.0 90.0)
  end
  begin
     id 23
     name lthumb
     direction 0.707107 -6.34941e-011 0.707107   
     length 0.781367   
     axis -90 45 2.85299e-015   XYZ
    dof rx rz
    limits (-45.0 45.0)
           (-45.0 45.0)
  end
  begin
     id 24 
     name rclavicle
     direction -0.967632 0.241887 0.0719654   
     length 3.53012  
     axis 0 0 0   XYZ 
    dof ry rz
    limits (-10.0 20.0)
           (-20.0 0.0)
  end
  begin
     id 25 
     name rhumerus
     direction -1 -4.4897e-011 6.87619e-028  
     length 5.45859   
     axis -180 30 90   XYZ
    dof rx ry rz
    limits (-90.0 60.0)
           (-90.0 90.0)
           (-90.0 90.0)
  end
  begin
     id 26 
     name rradius
     direction -1 -4.48967e-011 1.68055e-026   
     length 3.58491   
     axis -180 30 90   XYZ
    dof rx
    limits (-10.0 170.0)
  end
  begin
     id 27 
     name rwrist
     direction -1 -4.48976e-011 2.98015e-026   
     length 1.79245   
     axis -1.7599e-014 -90 -90   XYZ
    dof ry
    limits (-180.0 0.0)
  end
  begin
     id 28
     name rhand
     direction -1 -4.48996e-011 5.9603e-026   
     length 0.683735   
     axis -3.80318e-014 -90 -90   XYZ
    dof rx rz
    limits (-90.0 90.0)
           (-45.0 45.0)
  end
  begin
     id 29
     name rfingers
     direction -1 -4.48924e-011 1.19206e-025   
     length 0.551245   
     axis -7.60636e-014 -90 -90   XYZ
    dof rx
    limits (0.0 90.0)
  end
  begin
     id 30
     name rthumb
     direction -0.707107 -6.3492e-011 0.707107   
     length 0.791481   
     axis -90 -45 -2.85299e-015   XYZ
    dof rx rz
    limits (-45.0 45.0)
           (-45.0 45.0)
  end
:hierarchy
  begin
    root lhipjoint rhipjoint lowerback
    lhipjoint lfemur
    lfemur ltibia
    ltibia lfoot
    lfoot ltoes
    rhipjoint rfemur
    rfemur rtibia
    rtibia rfoot
    rfoot rtoes
    lowerback upperback
    upperback thorax
    thorax lowerneck lclavicle rclavicle
    lowerneck upperneck
    upperneck head
    lclavicle lhumerus
    lhumerus lradius
    lradius lwrist
    lwrist lhand lthumb
    lhand lfingers
    rclavicle rhumerus
    rhumerus rradius
    rradius rwrist
    rwrist rhand rthumb
    rhand rfingers
  end

#!OML:ASF F:\VICON\USERDATA\INSTALL\rory3\rory3.ASF
:FULLY-SPECIFIED
:DEGREES
2451
root -0.0410955 17.9825 -32.9657 -177.321 -178.312 184.698
lowerback 4.11688 0.0939418 -11.0208
upperback -0.339401 -0.3755 1.89651
thorax -2.59863 -0.0179506 8.24988
lowerneck -6.49375 4.02355 -1.3286
upperneck 4.94004 5.71096 -3.27147
head 2.76592 2.69962 -0.571055
rclavicle -1.72446e-014 5.56597e-015
rhumerus -33.8699 22.0057 -82.4002
rradius 39.3693
rwrist -1.24104
rhand -9.1131 51.6253
rfingers 7.12502
rthumb 16.8376 -337.665
lclavicle -1.72446e-014 5.56597e-015
lhumerus -39.7573 -42.6686 99.7794
lradius 68.8007
lwrist 49.9542
lhand -18.2165 427.818
lfingers 7.12502
lthumb -171.939 802.356
rfemur -28.9982 -7.51025 12.0226
rtibia 55.878
rfoot -25.5617 1.99547
rtoes -18.4539
lfemur -2.12676 -3.86388 -26.8099
ltibia 14.6768
lfoot -12.3857 12.9953
ltoes -12.8958
2452
root -0.0306575 17.9783 -33.0038 -177.242 -179.204 184.694
lowerback 4.10309 0.00646568 -11.2077
upperback -0.594279 -0.51235 1.8979
thorax -2.82949 -0.0576672 8.36954
lowerneck -5.82215 3.88404 -1.65325
upperneck 4.5653 5.49817 -2.9273
head 2.48976 2.61371 -0.433686
rclavicle 6.21202e-016 -5.56597e-015
rhumerus -34.3882 22.2637 -82.8642
rradius 39.5046
rwrist -1.21863
rhand -9.06336 51.2997
rfingers 7.12502
rthumb 16.8854 -337.986
lclavicle 6.21202e-016 -5.56597e-015
lhumerus -40.5336 -43.0128 100.206
lradius 68.5767
lwrist 49.8091
lhand -18.8254 426.84
lfingers 7.12502
lthumb -172.526 803.312
rfemur -28.0515 -5.73802 11.5762
rtibia 55.6228
rfoot -26.6426 1.70387
rtoes -14.8097
lfemur -2.41958 -4.43368 -26.7631
ltibia 14.7833
lfoot -12.3082 12.8432
ltoes -14.5036
2453
root -0.022686 17.9787 -33.035 -177.11 -180.041 184.647
lowerback 3.91561 0.0530032 -10.9172
upperback -0.227118 -0.402063 1.6494
thorax -2.36191 -0.0535717 7.92154
lowerneck -7.92226 3.52893 -2.08856
upperneck 5.00492 5.09576 -2.22639
head 2.99512 2.40203 -0.103013
rclavicle 6.75868e-015 2.3059e-014
rhumerus -33.5118 21.9641 -83.0254
rradius 39.5142
rwrist -1.34311
rhand -8.99647 51.152
rfingers 7.12502
rthumb 16.9498 -338.128
lclavicle 6.75868e-015 2.3059e-014
lhumerus -39.4612 -44.1752 99.155
lradius 68.3657
lwrist 49.9973
lhand -18.7729 427.13
lfingers 7.12502
lthumb -172.476 803.023
rfemur -27.1401 -4.08111 11.3301
rtibia 55.247
rfoot -27.7208 0.918395
rtoes -12.099
lfemur -2.82936 -4.26115 -26.6309
ltibia 15.0307
lfoot -12.076 12.0902
ltoes -16.4458
2454
root -0.018053 17.9824 -33.0594 -177.035 -180.835 184.64
lowerback 3.89926 -0.0640858 -11.0681
upperback -0.688055 -0.58641 1.65269
thorax -2.7994 -0.0967096 8.02608
lowerneck -6.67474 3.34935 -2.5872
upperneck 4.75433 4.83048 -1.84369
head 2.65025 2.28936 0.0622651
rclavicle 1.07841e-014 -6.75868e-015
rhumerus -34.5438 22.4846 -83.7754
rradius 39.7335
rwrist -1.72596
rhand -8.89961 51.4967
rfingers 7.12502
rthumb 17.0431 -337.776
lclavicle 1.07841e-014 -6.75868e-015
lhumerus -40.6046 -44.2553 99.7043
lradius 68.1645
lwrist 50.1317
lhand -18.9522 426.626
lfingers 7.12502
lthumb -172.649 803.522
rfemur -26.1186 -2.94187 11.1753
rtibia 54.7206
rfoot -28.5138 -0.345317
rtoes -11.8976
lfemur -3.18139 -4.16081 -26.5543
ltibia 15.3496
lfoot -11.8711 11.5134
ltoes -17.4724
2455
root -0.0189533 17.9884 -33.0809 -176.875 -181.517 184.63
lowerback 3.73265 -0.148502 -11.0406
upperback -0.594886 -0.673826 1.62377
thorax -2.58758 -0.157949 7.98052
lowerneck -7.8014 3.16152 -3.55
upperneck 5.02544 4.68658 -1.22267
head 2.91589 2.20854 0.448345
rclavicle -2.73577e-014 7.95139e-016
rhumerus -34.0799 22.9906 -84.0466
rradius 39.6198
rwrist -2.02863
rhand -9.00202 51.3703
rfingers 7.12502
rthumb 16.9445 -337.911
lclavicle -2.73577e-014 7.95139e-016
lhumerus -40.0111 -44.5733 98.977
lradius 67.9497
lwrist 49.9699
lhand -18.9209 426.494
lfingers 7.12502
lthumb -172.619 803.654
rfemur -25.2233 -1.84299 11.1468
rtibia 54.0331
rfoot -28.6844 -1.50863
rtoes -13.0526
lfemur -3.64372 -4.17607 -26.4643
ltibia 15.6386
lfoot -11.8206 10.8097
ltoes -17.2231
2456
root -0.0240536 17.9883 -33.1004 -176.857 -182.06 184.479
lowerback 3.69053 -0.0396457 -10.8492
upperback -0.840003 -0.53172 1.44088
thorax -2.85651 -0.0649349 7.66746
lowerneck -7.1946 2.91221 -3.70473
upperneck 4.91466 4.31705 -0.896924
head 2.75782 2.03978 0.547656
rclavicle -1.17531e-014 6.36111e-015
rhumerus -34.6577 23.0142 -84.8331
rradius 39.5757
rwrist -2.08446
rhand -9.37087 51.3823
rfingers 7.12502
rthumb 16.5894 -337.929
lclavicle -1.17531e-014 6.36111e-015
lhumerus -40.6774 -44.9738 98.8508
lradius 67.8524
lwrist 49.5679
lhand -18.7588 426.587
lfingers 7.12502
lthumb -172.462 803.567
rfemur -24.2273 -0.433969 11.3552
rtibia 53.1635
rfoot -28.1977 -1.31945
rtoes -9.03913
lfemur -3.93231 -4.1531 -26.2252
ltibia 15.9311
lfoot -11.825 10.0202
ltoes -16.9613
2457
root -0.0293925 17.9822 -33.1122 -176.832 -182.546 184.52
lowerback 3.74151 0.148651 -10.6565
upperback -0.896881 -0.289516 1.10987
thorax -2.99798 0.0597527 7.18862
lowerneck -7.76269 2.57008 -3.72305
upperneck 5.14264 3.88098 -0.714939
head 2.94625 1.82223 0.605647
rclavicle -4.74598e-015 3.26007e-014
rhumerus -34.7037 22.9865 -85.4626
rradius 39.6618
rwrist -2.5311
rhand -8.20322 50.5255
rfingers 7.12502
rthumb 17.7133 -338.688
lclavicle -4.74598e-015 3.26007e-014
lhumerus -40.5809 -45.5625 98.1435
lradius 67.6652
lwrist 49.2525
lhand -18.0961 426.557
lfingers 7.12502
lthumb -171.822 803.621
rfemur -23.3171 1.04391 11.4219
rtibia 52.1511
rfoot -28.3035 -1.2356
rtoes -3.32869
lfemur -4.20415 -4.24721 -26.2188
ltibia 16.2647
lfoot -11.6637 9.61475
ltoes -17.122
2458
root -0.0409831 17.9758 -33.1177 -176.819 -183.04 184.617
lowerback 3.79135 0.219626 -10.8103
upperback -1.02423 -0.217529 1.03014
thorax -3.17626 0.113198 7.1876
lowerneck -7.93462 2.35576 -4.18452
upperneck 5.17097 3.64497 -0.598507
head 2.98335 1.69859 0.716314
rclavicle -1.9133e-015 1.35174e-014
rhumerus -34.8424 23.6825 -85.9504
rradius 39.707
rwrist -2.95673
rhand -7.93091 50.92
rfingers 7.12502
rthumb 17.9753 -338.269
lclavicle -1.9133e-015 1.35174e-014
lhumerus -40.1766 -45.1135 97.2645
lradius 67.102
lwrist 47.6358
lhand -12.9542 444.161
lfingers 7.12502
lthumb -166.863 786.273
rfemur -22.4621 2.77966 11.5219
rtibia 51.0579
rfoot -29.682 -1.88868
rtoes 0.662917
lfemur -4.4625 -4.38758 -26.2468
ltibia 16.6027
lfoot -11.4909 9.36093
ltoes -15.9622
2459
root -0.0575301 17.9693 -33.1185 -176.86 -183.405 184.674
lowerback 3.70909 0.358817 -10.9282
upperback -1.17752 -0.0405333 0.889982
thorax -3.32889 0.217383 7.09331
lowerneck -7.62464 2.13505 -4.50064
upperneck 5.15671 3.35583 -0.431954
head 2.9185 1.55648 0.805641
rclavicle -1.7344e-014 7.95139e-015
rhumerus -35.2411 24.4585 -86.7587
rradius 39.5372
rwrist -2.73933
rhand -8.77489 51.2596
rfingers 7.12502
rthumb 17.1631 -338.002
lclavicle -1.7344e-014 7.95139e-015
lhumerus -39.834 -44.4683 96.1662
lradius 66.4484
lwrist 44.651
lhand -8.58705 431.565
lfingers 7.12502
lthumb -162.656 799.189
rfemur -21.6507 4.7013 11.692
rtibia 50.0072
rfoot -31.691 -2.87245
rtoes 3.99772
lfemur -4.5416 -4.47881 -26.2286
ltibia 16.7779
lfoot -11.4433 9.03516
ltoes -14.5419
2460
root -0.0738237 17.9642 -33.1203 -176.81 -183.486 184.759
lowerback 3.49763 0.56181 -11.0772
upperback -1.3425 0.234507 0.728098
thorax -3.44082 0.368978 6.9863
lowerneck -7.1473 1.96286 -4.59434
upperneck 5.08667 3.1079 -0.430095
head 2.80883 1.43481 0.801551
rclavicle 1.73005e-014 -5.96354e-015
rhumerus -35.6539 25.4373 -87.566
rradius 39.5257
rwrist -2.46217
rhand -9.63313 51.3438
rfingers 7.12502
rthumb 16.3369 -337.988
lclavicle 1.73005e-014 -5.96354e-015
lhumerus -39.479 -43.4914 95.0178
lradius 65.757
lwrist 41.8037
lhand -4.18387 432.163
lfingers 7.12502
lthumb -158.423 799.019
rfemur -21.1011 6.20512 11.7961
rtibia 49.1035
rfoot -33.1967 -4.06429
rtoes 5.17682
lfemur -4.69262 -4.52602 -26.2781
ltibia 16.8836
lfoot -11.4189 8.92273
ltoes -12.8884
